<?xml version="1.0" standalone="no"?>
<!DOCTYPE svg PUBLIC "-//W3C//DTD SVG 20010904//EN"
 "http://www.w3.org/TR/2001/REC-SVG-20010904/DTD/svg10.dtd">
<svg version="1.0" xmlns="http://www.w3.org/2000/svg"
 width="700.000000pt" height="700.000000pt" viewBox="0 0 700.000000 700.000000"
 preserveAspectRatio="xMidYMid meet">
<metadata>
Created by potrace 1.11, written by Peter Selinger 2001-2013
</metadata>
<g transform="translate(0.000000,700.000000) scale(0.100000,-0.100000)"
fill="#000000" stroke="none">
<path d="M3728 6995 c-1 -2 -32 -6 -68 -9 -36 -3 -92 -10 -125 -16 -33 -6 -73
-13 -90 -16 -51 -9 -214 -54 -289 -81 -599 -213 -1086 -673 -1330 -1256 -39
-91 -78 -203 -91 -257 -2 -8 -13 -51 -23 -95 -33 -133 -50 -247 -57 -385 -2
-25 -3 -212 -4 -415 l-1 -370 -53 -1 c-38 0 -61 -6 -83 -22 l-30 -23 -69 46
c-89 58 -157 90 -259 122 -103 32 -321 41 -426 17 -326 -76 -583 -339 -644
-659 -15 -81 -18 -106 -17 -180 0 -44 3 -95 5 -112 19 -133 86 -295 163 -395
54 -71 298 -313 838 -831 278 -268 425 -415 425 -426 0 -5 7 -16 15 -24 19
-20 79 -139 99 -199 32 -97 36 -174 36 -790 l0 -618 2245 0 c1789 0 2245 3
2246 13 0 6 1 273 1 592 l0 580 396 5 397 5 -1 260 0 260 -394 0 -395 1 -2
1499 c-1 1384 -4 1630 -19 1755 -18 155 -66 354 -125 520 -36 100 -187 410
-200 410 -5 0 -9 5 -9 11 0 14 -92 147 -169 244 -61 77 -246 265 -331 337 -92
77 -270 194 -391 257 -239 125 -462 195 -749 236 -48 7 -416 16 -422 10z"/>
</g>
</svg>
